<svg width="25" height="25" viewBox="0 0 25 25" fill="none" xmlns="http://www.w3.org/2000/svg">
<path d="M23.9652 6.18791C23.9652 4.23766 21.7592 3.12441 20.2144 4.29316L18.7534 5.39991V5.40316L12.4999 10.1369L6.24642 5.39991L4.78867 4.29616C3.24067 3.12741 1.03467 4.24091 1.03467 6.19091V8.29416V19.6044C1.03467 20.4769 1.73442 21.1834 2.59892 21.1834H6.24642V12.2402L12.4999 16.9739L18.7534 12.2402V12.2369L18.7607 12.2314L18.7534 12.2402V21.1834H22.4009C23.2652 21.1834 23.9652 20.4769 23.9652 19.6044V8.29441L23.9557 8.29816L23.9652 8.29116V6.18791Z" fill="#B5332A"/>
<path d="M2.59892 21.1834H6.24642V12.2402L1.03467 8.29443V19.6047C1.03467 20.4769 1.73442 21.1834 2.59892 21.1834Z" fill="#4E85EB"/>
<path d="M18.7534 21.1834H22.4009C23.2652 21.1834 23.9652 20.4769 23.9652 19.6044V8.29443L18.7534 12.2402V21.1834Z" fill="#58A45C"/>
<path d="M18.7534 5.39991V12.2369L23.9652 8.29116V6.18791C23.9652 4.23766 21.7592 3.12441 20.2144 4.29316L18.7534 5.39991Z" fill="#F2BC42"/>
<path d="M6.24634 12.2402V5.3999L12.4998 10.1369L18.7533 5.40315V12.2402L12.4998 16.9739L6.24634 12.2402Z" fill="#D85040"/>
<path d="M1.03467 6.19093V8.29418L6.24642 12.2399V5.39968L4.78867 4.29593C3.24067 3.12743 1.03467 4.24068 1.03467 6.19093Z" fill="#B5332A"/>
</svg>
