<svg width="25" height="25" viewBox="0 0 25 25" fill="none" xmlns="http://www.w3.org/2000/svg">
<g clip-path="url(#clip0_452_3520)">
<path d="M12.5 25C19.4036 25 25 19.4036 25 12.5C25 5.59644 19.4036 0 12.5 0C5.59644 0 0 5.59644 0 12.5C0 19.4036 5.59644 25 12.5 25Z" fill="#4D76A1"/>
<path fill-rule="evenodd" clip-rule="evenodd" d="M12.0278 17.9821H13.0089C13.0089 17.9821 13.3052 17.9496 13.4565 17.7865C13.5958 17.6368 13.5913 17.3556 13.5913 17.3556C13.5913 17.3556 13.5722 16.0391 14.1832 15.8453C14.7855 15.6543 15.5589 17.1176 16.3787 17.6802C16.9986 18.106 17.4696 18.0127 17.4696 18.0127L19.6615 17.9821C19.6615 17.9821 20.8082 17.9115 20.2645 17.01C20.2199 16.9362 19.9479 16.343 18.6348 15.1242C17.2604 13.8485 17.4444 14.0549 19.1 11.8482C20.1083 10.5044 20.5114 9.68394 20.3855 9.33255C20.2654 8.99787 19.5238 9.08633 19.5238 9.08633L17.0558 9.1017C17.0558 9.1017 16.8729 9.07675 16.7372 9.15785C16.6046 9.2374 16.5193 9.42279 16.5193 9.42279C16.5193 9.42279 16.1286 10.4627 15.6077 11.3471C14.5087 13.2133 14.0693 13.3117 13.8897 13.1959C13.4719 12.9258 13.5762 12.1109 13.5762 11.532C13.5762 9.72361 13.8505 8.96957 13.0421 8.77437C12.7738 8.70953 12.5764 8.66675 11.8903 8.65984C11.0097 8.65071 10.2644 8.66252 9.84233 8.8693C9.56157 9.00678 9.34498 9.31316 9.47689 9.33077C9.64 9.3526 10.0094 9.43037 10.2053 9.69709C10.4582 10.0411 10.4493 10.8139 10.4493 10.8139C10.4493 10.8139 10.5946 12.9427 10.1099 13.2072C9.77726 13.3886 9.32092 13.0183 8.34116 11.3253C7.83913 10.458 7.46011 9.49944 7.46011 9.49944C7.46011 9.49944 7.38702 9.32029 7.25667 9.22448C7.09847 9.10839 6.87742 9.0714 6.87742 9.0714L4.5322 9.08677C4.5322 9.08677 4.18013 9.09658 4.0509 9.24966C3.93592 9.3858 4.04176 9.66745 4.04176 9.66745C4.04176 9.66745 5.87783 13.9631 7.95678 16.1278C9.86305 18.1125 12.0278 17.9821 12.0278 17.9821Z" fill="white"/>
</g>
<defs>
<clipPath id="clip0_452_3520">
<rect width="25" height="25" fill="white"/>
</clipPath>
</defs>
</svg>
